<svg width="18" height="20" viewBox="0 0 18 20" fill="none" xmlns="http://www.w3.org/2000/svg">
<path fill-rule="evenodd" clip-rule="evenodd" d="M16.5517 20H1.37931C1.00575 20 0.682473 19.8635 0.409483 19.5905C0.136493 19.3175 0 18.9943 0 18.6207V3.44828C0 3.06034 0.136493 2.73348 0.409483 2.46767C0.682473 2.20187 1.00575 2.06897 1.37931 2.06897H2.75862V2.75862C2.75862 3.33334 2.95977 3.82184 3.36207 4.22414C3.76437 4.62644 4.25287 4.82759 4.82759 4.82759C5.4023 4.82759 5.8908 4.62644 6.2931 4.22414C6.6954 3.82184 6.89655 3.33334 6.89655 2.75862V2.06897H11.0345V2.75862C11.0345 3.33334 11.2356 3.82184 11.6379 4.22414C12.0402 4.62644 12.5287 4.82759 13.1034 4.82759C13.6782 4.82759 14.1667 4.62644 14.569 4.22414C14.9713 3.82184 15.1724 3.33334 15.1724 2.75862V2.06897H16.5517C16.9253 2.06897 17.2486 2.20187 17.5216 2.46767C17.7945 2.73348 17.931 3.06034 17.931 3.44828V18.6207C17.931 18.9943 17.7945 19.3175 17.5216 19.5905C17.2486 19.8635 16.9253 20 16.5517 20ZM16.5517 6.89655H1.37931V18.6207H16.5517V6.89655ZM4.82759 10.3448H2.75862V8.27586H4.82759V10.3448ZM4.82759 13.7931H2.75862V11.7241H4.82759V13.7931ZM4.82759 17.2414H2.75862V15.1724H4.82759V17.2414ZM8.27586 10.3448H6.2069V8.27586H8.27586V10.3448ZM8.27586 13.7931H6.2069V11.7241H8.27586V13.7931ZM8.27586 17.2414H6.2069V15.1724H8.27586V17.2414ZM11.7241 10.3448H9.65517V8.27586H11.7241V10.3448ZM11.7241 13.7931H9.65517V11.7241H11.7241V13.7931ZM11.7241 17.2414H9.65517V15.1724H11.7241V17.2414ZM15.1724 10.3448H13.1034V8.27586H15.1724V10.3448ZM15.1724 13.7931H13.1034V11.7241H15.1724V13.7931ZM15.1724 17.2414H13.1034V15.1724H15.1724V17.2414ZM13.0819 4.13793C12.7083 4.13793 12.3887 4.00503 12.1228 3.73922C11.857 3.47342 11.7241 3.15374 11.7241 2.78017V1.35776C11.7241 0.984193 11.857 0.664513 12.1228 0.398706C12.3887 0.132902 12.7083 0 13.0819 0C13.4555 0 13.7751 0.132902 14.0409 0.398706C14.3068 0.664513 14.4397 0.984193 14.4397 1.35776V2.78017C14.4397 3.15374 14.3068 3.47342 14.0409 3.73922C13.7751 4.00503 13.4555 4.13793 13.0819 4.13793ZM4.80604 4.13793C4.43247 4.13793 4.11279 4.00503 3.84698 3.73922C3.58118 3.47342 3.44828 3.15374 3.44828 2.78017V1.35776C3.44828 0.984193 3.58118 0.664513 3.84698 0.398706C4.11279 0.132902 4.43247 0 4.80604 0C5.1796 0 5.49928 0.132902 5.76509 0.398706C6.03089 0.664513 6.16379 0.984193 6.16379 1.35776V2.78017C6.16379 3.15374 6.03089 3.47342 5.76509 3.73922C5.49928 4.00503 5.1796 4.13793 4.80604 4.13793Z" fill="#00B2BD"/>
</svg>
