<svg width="28" height="24" viewBox="0 0 28 24" fill="none" xmlns="http://www.w3.org/2000/svg">
<path fill-rule="evenodd" clip-rule="evenodd" d="M1.09375 0H26.9062C27.5104 0 28 0.487997 28 1.09012V22.6744C28 23.2765 27.5104 23.7645 26.9062 23.7645H1.09375C0.489624 23.7645 0 23.2765 0 22.6744V1.09012C0 0.487997 0.489624 0 1.09375 0ZM2.1875 21.5843H25.8125V7.41279H2.1875V21.5843ZM25.8125 5.23256H2.1875V2.18023H25.8125V5.23256ZM8.43384 13.3013C8.00659 13.7272 8.00659 14.4174 8.43384 14.843L11.9142 18.3118C12.3412 18.7374 13.0338 18.7377 13.461 18.3118L19.5662 12.227C19.9934 11.8011 19.9932 11.1109 19.5662 10.6853C19.1391 10.2594 18.4466 10.2594 18.0193 10.6853L12.6875 15.9994L9.98068 13.3013C9.55344 12.8757 8.86108 12.8757 8.43384 13.3013Z" fill="white"/>
</svg>
