<svg width="26" height="42" viewBox="0 0 26 42" fill="none" xmlns="http://www.w3.org/2000/svg">
<path d="M19.968 3.5H19.9507C19.4723 3.5 19.0927 3.89203 19.0927 4.37503C19.0927 4.85803 19.4896 5.24997 19.968 5.24997C20.4464 5.24997 20.8347 4.85795 20.8347 4.37495C20.8347 3.89195 20.4464 3.5 19.968 3.5Z" fill="#00B2BD"/>
<path d="M13 38.4999C13.9568 38.4999 14.7333 37.716 14.7333 36.75C14.7333 35.784 13.9568 35 13 35C12.0432 35 11.2667 35.784 11.2667 36.75C11.2667 37.716 12.0432 38.4999 13 38.4999Z" fill="#00B2BD"/>
<path d="M14.7333 3.5H11.2666C10.7882 3.5 10.3999 3.89203 10.3999 4.37503C10.3999 4.85803 10.7883 5.24997 11.2667 5.24997H14.7334C15.2117 5.24997 15.6 4.85795 15.6 4.37495C15.6 3.89195 15.2117 3.5 14.7333 3.5Z" fill="#00B2BD"/>
<path fill-rule="evenodd" clip-rule="evenodd" d="M4.33331 0H21.6667C24.0552 0 26 1.9635 26 4.37497V37.625C26 40.0365 24.0552 42 21.6666 42H4.33331C1.9448 42 0 40.0365 0 37.6249V4.37497C0 1.9635 1.9448 0 4.33331 0ZM21.6667 40.25C23.1002 40.25 24.2667 39.0723 24.2667 37.625H24.2666V33.2501H1.73331V37.625C1.73331 39.0723 2.89981 40.25 4.33331 40.25H21.6667ZM24.2666 31.5H1.73331V8.75003H24.2666V31.5ZM1.73331 6.99997H24.2666V4.37497C24.2666 2.9277 23.1001 1.74997 21.6666 1.74997H4.33331C2.89981 1.74997 1.73331 2.9277 1.73331 4.37497V6.99997Z" fill="#00B2BD"/>
</svg>
