<svg width="24" height="24" viewBox="0 0 24 24" fill="none" xmlns="http://www.w3.org/2000/svg">
<path fill-rule="evenodd" clip-rule="evenodd" d="M23.6261 0.160928C23.9207 0.375093 24.0412 0.66064 23.9876 1.01758L20.5594 21.5773C20.5147 21.8361 20.3719 22.0368 20.1308 22.1796C20.0058 22.251 19.8675 22.2867 19.7157 22.2867C19.6175 22.2867 19.5104 22.2644 19.3943 22.2198L12.3369 19.3419L8.34618 23.7189C8.18548 23.9063 7.97567 24 7.71677 24C7.59178 24 7.48911 23.9822 7.40876 23.9465C7.23913 23.884 7.10522 23.7791 7.00701 23.6319C6.9088 23.4847 6.8597 23.3218 6.8597 23.1433V17.0932L0.538838 14.5099C0.208509 14.385 0.0299552 14.1396 0.00317177 13.7737C-0.0236117 13.4257 0.119231 13.1624 0.431705 12.984L22.7154 0.134159C23.0279 -0.053237 23.3314 -0.0443141 23.6261 0.160928ZM18.5536 20.2105L21.4737 2.52632L2.52632 13.5806L6.96587 15.4119L18.3686 6.87051L12.0529 17.5238L18.5536 20.2105Z" fill="white"/>
</svg>
