<svg width="8" height="13" viewBox="0 0 8 13" fill="none" xmlns="http://www.w3.org/2000/svg">
<path fill-rule="evenodd" clip-rule="evenodd" d="M1.41146 12.3875C1.33854 12.4625 1.22917 12.5 1.08333 12.5C0.913194 12.5 0.773439 12.4375 0.664061 12.3125C0.554686 12.1875 0.5 12.0375 0.5 11.8625L0.5 1.1375C0.5 0.962499 0.554686 0.812502 0.664061 0.6875C0.773439 0.562498 0.913194 0.5 1.08333 0.5C1.20486 0.5 1.30208 0.5375 1.375 0.6125L1.48438 0.6875L7.17188 5.7875C7.39063 6.0125 7.5 6.25 7.5 6.5C7.5 6.75 7.39063 6.9875 7.17188 7.2125L1.48438 12.3125L1.41146 12.3875Z" fill="#00B2BD"/>
</svg>
