<svg width="5" height="9" viewBox="0 0 5 9" fill="none" xmlns="http://www.w3.org/2000/svg">
<path fill-rule="evenodd" clip-rule="evenodd" d="M0.651042 8.91562C0.598958 8.97188 0.520833 9 0.416667 9C0.295138 9 0.195313 8.95313 0.117187 8.85938C0.0390617 8.76562 0 8.65313 0 8.52187L0 0.478125C0 0.346874 0.0390617 0.234376 0.117187 0.140625C0.195313 0.046874 0.295138 0 0.416667 0C0.503473 0 0.572917 0.0281258 0.625 0.0843754L0.703125 0.140625L4.76562 3.96562C4.92188 4.13437 5 4.3125 5 4.5C5 4.6875 4.92188 4.86562 4.76562 5.03437L0.703125 8.85938L0.651042 8.91562Z" fill="#00B2BD"/>
</svg>
