<svg width="21" height="21" viewBox="0 0 21 21" fill="none" xmlns="http://www.w3.org/2000/svg">
<path fill-rule="evenodd" clip-rule="evenodd" d="M15.3125 12.7969L15.0938 13.1797L21 19.1406L19.1406 21L13.2344 15.0391L12.8516 15.3125C11.3932 16.224 9.88022 16.6797 8.3125 16.6797C6.01561 16.6797 4.056 15.8594 2.43359 14.2188C0.81119 12.5781 0 10.6094 0 8.3125C0 6.01561 0.81119 4.056 2.43359 2.43359C4.056 0.811192 6.01561 0 8.3125 0C10.6094 0 12.569 0.811192 14.1914 2.43359C15.8138 4.056 16.625 6.01561 16.625 8.3125C16.625 9.91668 16.1875 11.4115 15.3125 12.7969ZM12.9609 3.66406C11.6849 2.38802 10.1354 1.75 8.3125 1.75C6.48957 1.75 4.94011 2.38802 3.66406 3.66406C2.38801 4.94011 1.75 6.48957 1.75 8.3125C1.75 10.1354 2.38801 11.6849 3.66406 12.9609C4.94011 14.237 6.48957 14.875 8.3125 14.875C10.1354 14.875 11.6849 14.237 12.9609 12.9609C14.2734 11.6484 14.9297 10.099 14.9297 8.3125C14.9297 6.52603 14.2734 4.97657 12.9609 3.66406Z" fill="white"/>
</svg>
