<svg width="34" height="34" viewBox="0 0 34 34" fill="none" xmlns="http://www.w3.org/2000/svg">
<path d="M9.86 19.72C15.3055 19.72 19.72 15.3055 19.72 9.86C19.72 4.41447 15.3055 0 9.86 0C4.41447 0 0 4.41447 0 9.86C0 15.3055 4.41447 19.72 9.86 19.72Z" fill="#28A8EA"/>
<path d="M24.14 34C29.5856 34 34 29.5856 34 24.14C34 18.6945 29.5856 14.28 24.14 14.28C18.6945 14.28 14.28 18.6945 14.28 24.14C14.28 29.5856 18.6945 34 24.14 34Z" fill="#28A8EA"/>
<path d="M17 33.3199C26.0133 33.3199 33.32 26.0132 33.32 16.9999C33.32 7.98664 26.0133 0.679932 17 0.679932C7.9867 0.679932 0.679993 7.98664 0.679993 16.9999C0.679993 26.0132 7.9867 33.3199 17 33.3199Z" fill="#28A8EA"/>
<path fill-rule="evenodd" clip-rule="evenodd" d="M12.7676 16.69C12.1296 16.2697 11.5973 15.7077 11.2123 15.0478C10.8403 14.3511 10.6566 13.5692 10.6795 12.7797C10.6512 11.7777 10.9931 10.8003 11.6399 10.0344C12.3119 9.26534 13.1756 8.688 14.1433 8.36119C15.1959 7.98948 16.3049 7.80288 17.4213 7.80965C18.1518 7.80273 18.8815 7.85871 19.6025 7.97697C20.1182 8.05669 20.6246 8.18747 21.1144 8.3674C21.5644 8.51979 21.9706 8.77923 22.2981 9.1234C22.5394 9.40648 22.6694 9.7678 22.6636 10.1398C22.6812 10.53 22.543 10.9112 22.2794 11.1995C22.0295 11.4655 21.6777 11.6121 21.3128 11.6023C21.0644 11.6005 20.8193 11.5455 20.594 11.4411C20.0392 11.1928 19.4677 10.9837 18.8836 10.8153C18.3459 10.6736 17.7915 10.6048 17.2354 10.6108C16.5112 10.5839 15.7946 10.7668 15.1719 11.1375C14.6361 11.4629 14.3202 12.0543 14.3478 12.6806C14.3439 13.0839 14.4972 13.4728 14.7753 13.765C15.1059 14.1078 15.4966 14.3872 15.9279 14.5892C16.4113 14.829 17.1322 15.1471 18.0905 15.5436C18.1967 15.5771 18.3003 15.6186 18.4004 15.6676C19.3356 16.0374 20.2322 16.4982 21.0773 17.0433C21.7449 17.4786 22.3078 18.0564 22.7256 18.7351C23.1368 19.4481 23.3426 20.2609 23.3205 21.0837C23.355 22.0915 23.0662 23.0839 22.4962 23.9158C21.9159 24.7033 21.1131 25.299 20.1912 25.6262C19.0804 26.0229 17.9066 26.214 16.7273 26.1901C15.1066 26.2472 13.4936 25.9423 12.0056 25.2977C11.6248 25.1284 11.2909 24.8689 11.0327 24.5417C10.8187 24.2421 10.7078 23.8811 10.7166 23.513C10.695 23.1199 10.8467 22.7372 11.1317 22.4657C11.4273 22.2068 11.8111 22.0714 12.2037 22.0877C12.6407 22.0937 13.0698 22.2042 13.4554 22.4099C13.9345 22.6496 14.3125 22.8294 14.5894 22.9491C14.9058 23.0816 15.2335 23.1853 15.5685 23.2589C15.9815 23.3497 16.4035 23.3933 16.8263 23.389C17.5739 23.4422 18.3177 23.2437 18.9394 22.8252C19.4117 22.4556 19.677 21.8812 19.652 21.2821C19.6529 20.8629 19.4933 20.4593 19.2059 20.1542C18.8261 19.7629 18.3818 19.4401 17.8923 19.1999C17.3138 18.8942 16.5 18.5224 15.4507 18.0844C14.512 17.7104 13.6131 17.2433 12.7676 16.69" fill="white"/>
<path opacity="0.1" d="M12.9404 0.496494C12.5092 0.352141 12.0684 0.238523 11.6212 0.156494C6.17377 1.9047 1.90458 6.17389 0.156372 11.6213C0.238415 12.0685 0.352033 12.5093 0.496372 12.9405C0.616921 13.3309 0.769299 13.7107 0.951972 14.0761C2.16154 7.39253 7.3924 2.16166 14.076 0.952094C13.7105 0.769443 13.3307 0.617065 12.9404 0.496494Z" fill="black"/>
<path opacity="0.1" d="M12.9404 0.496338C6.80257 2.01018 2.01025 6.80251 0.496399 12.9403C0.616948 13.3307 0.769326 13.7105 0.951999 14.0759C2.16157 7.39237 7.39243 2.1615 14.076 0.951938C13.7106 0.769286 13.3307 0.616909 12.9404 0.496338Z" fill="black"/>
<path opacity="0.1" d="M33.5036 21.0597C33.3831 20.6693 33.2307 20.2895 33.048 19.9241C31.8385 26.6076 26.6076 31.8385 19.924 33.0481C20.2894 33.2307 20.6693 33.3831 21.0596 33.5037C21.4908 33.648 21.9316 33.7616 22.3788 33.8437C27.8262 32.0955 32.0954 27.8263 33.8436 22.3789C33.7616 21.9317 33.6479 21.4908 33.5036 21.0597Z" fill="black"/>
<path opacity="0.1" d="M33.048 19.9241C31.8385 26.6076 26.6076 31.8385 19.924 33.0481C20.2894 33.2307 20.6693 33.3831 21.0596 33.5037C27.1974 31.9898 31.9898 27.1975 33.5036 21.0597C33.3831 20.6693 33.2307 20.2895 33.048 19.9241Z" fill="black"/>
</svg>
