<?xml version="1.0" encoding="UTF-8"?>
<svg width="20px" height="20px" viewBox="0 0 20 20" version="1.1" xmlns="http://www.w3.org/2000/svg" xmlns:xlink="http://www.w3.org/1999/xlink">
    <!-- Generator: Sketch 54.1 (76490) - https://sketchapp.com -->
    <title>military copy</title>
    <desc>Created with Sketch.</desc>
    <g id="Page-1" stroke="none" stroke-width="1" fill="none" fill-rule="evenodd">
        <g id="military-copy" transform="translate(0.000000, -0.000000)" fill="#FF6142" fill-rule="nonzero">
            <path d="M1.20196491,11.4997895 C1.33550877,11.6332632 1.48919298,11.7000702 1.66280702,11.7000702 C1.83642105,11.7000702 1.99010526,11.6332632 2.12364912,11.4997895 L9.99761404,3.62568421 L17.8718596,11.4997895 C18.0053333,11.6332632 18.1590877,11.7000702 18.3324211,11.7000702 C18.5063158,11.7000702 18.66,11.6332632 18.7934737,11.4997895 L19.7951579,10.4978947 C19.9286316,10.3644211 19.9949474,10.2106667 19.9949474,10.0373333 C19.9949474,9.86364912 19.9282105,9.70996491 19.7951579,9.57649123 L10.4581053,0.239929825 C10.3247018,0.106175439 10.1712281,0.0397192982 9.99761404,0.0397192982 C9.824,0.0397192982 9.67024561,0.106385965 9.53677193,0.239929825 L0.200421053,9.57642105 C0.0666666667,9.70996491 0,9.8634386 0,10.0374737 C0,10.2106667 0.066877193,10.3643509 0.200421053,10.4978947 L1.20196491,11.4997895 Z" id="Path"></path>
            <path d="M10.4581053,7.93368421 C10.3247018,7.79992982 10.1712281,7.73326316 9.99761404,7.73326316 C9.824,7.73326316 9.67024561,7.80014035 9.53677193,7.93368421 L0.200421053,17.2701754 C0.0666666667,17.4037193 0,17.5573333 0,17.7312281 C0,17.9047018 0.066877193,18.0583158 0.200421053,18.1918596 L1.20196491,19.1936842 C1.33550877,19.3272281 1.48919298,19.3935439 1.66280702,19.3935439 C1.83642105,19.3935439 1.99010526,19.326807 2.12364912,19.1936842 L9.99761404,11.3193684 L17.8718596,19.1936842 C18.0053333,19.3272281 18.1590877,19.3938246 18.3324211,19.3938246 C18.5063158,19.3938246 18.66,19.3272982 18.7934737,19.1936842 L19.7951579,18.1918596 C19.9286316,18.0583158 19.9949474,17.9046316 19.9949474,17.7312281 C19.9949474,17.5573333 19.9282105,17.4037193 19.7951579,17.2701754 L10.4581053,7.93368421 Z" id="Path"></path>
        </g>
    </g>
</svg>