<svg width="35" height="33" viewBox="0 0 35 33" fill="none" xmlns="http://www.w3.org/2000/svg">
<path fill-rule="evenodd" clip-rule="evenodd" d="M4.87826 0H29.1291C31.8234 0 34.0074 2.18396 34.0074 4.87826V27.2739C34.0074 27.7686 33.9338 28.246 33.7969 28.6959C33.3773 30.7236 31.5752 32.2483 29.4174 32.2483C27.6435 32.2581 25.8696 32.2548 24.0957 32.2515L24.0895 32.2515C23.2046 32.2499 22.3197 32.2483 21.4348 32.2483H10.7617C10.614 32.2483 10.4662 32.2409 10.3185 32.2335L10.3183 32.2335C9.73897 32.2356 9.16029 32.2425 8.58204 32.2495C7.1387 32.2668 5.69805 32.2841 4.25739 32.2261C1.94959 32.1404 0.166694 30.2658 0.0503877 27.9777C0.0171853 27.7479 0 27.5129 0 27.2739V4.87826C0 4.57328 0.0279826 4.27485 0.0815206 3.98537C0.338229 1.92773 1.89297 0.461443 3.7823 0.123584C4.13459 0.0427211 4.50143 0 4.87826 0Z" fill="#FDFEFE"/>
<path d="M10.3108 32.2408C8.29301 32.2408 6.2678 32.3073 4.24997 32.2334C1.86258 32.1373 0.0369263 30.1343 0.0369263 27.7469C0.0369263 20.0377 0.0517089 12.3286 0.0369263 4.61208C0.0369263 1.97338 2.0991 0.132945 4.47171 0.0664232C6.95519 -9.85451e-05 9.44606 0.0516406 11.9369 0.0516406C11.9813 0.0516406 12.0404 0.0294667 12.0626 0.10338C12.0478 0.236423 11.9148 0.251206 11.8334 0.302945C10.37 1.16034 9.03214 2.18773 7.90867 3.45903C6.05345 5.55816 4.76736 7.96773 4.33127 10.769C3.56258 15.7138 5.10736 19.9121 8.60345 23.4156C9.22432 24.0438 9.30562 24.5316 8.8104 25.3742C8.21171 26.3869 7.30258 27.0742 6.33432 27.7025C6.23084 27.7616 6.12736 27.8356 6.02388 27.9021C5.86867 28.0351 5.96475 28.1016 6.0978 28.1608C6.12736 28.2273 6.16432 28.2864 6.20867 28.3456C7.05867 29.0995 7.86432 29.9051 8.69954 30.6738C9.09127 31.036 9.48301 31.4129 9.85997 31.7899C10.0152 31.9303 10.2739 31.9747 10.3108 32.2408Z" fill="#0180C7"/>
<path d="M10.3109 32.2408C10.2739 31.9821 10.0152 31.9378 9.86001 31.7825C9.48306 31.3982 9.09132 31.0286 8.69958 30.6665C7.86436 29.8978 7.05871 29.0921 6.20871 28.3382C6.16436 28.2791 6.1274 28.2199 6.09784 28.1534C7.98262 28.523 9.82306 28.2717 11.6339 27.7173C12.2474 27.5325 12.8609 27.3478 13.4818 27.1925C13.9031 27.0817 14.3465 27.1039 14.7531 27.2517C19.4391 28.863 24.0661 28.7152 28.6191 26.7195C30.4744 25.8991 32.167 24.746 33.6009 23.3047C33.6748 23.2308 33.7265 23.1199 33.8596 23.1125C33.9261 23.216 33.8891 23.3269 33.8891 23.4378V27.7617C33.9039 30.2304 31.9231 32.2408 29.4544 32.263H29.4174C26.7565 32.2778 24.0957 32.263 21.4348 32.263H10.7544C10.6065 32.2482 10.4587 32.2408 10.3109 32.2408Z" fill="#0172B1"/>
<path d="M11.4639 15.6992C12.58 15.6992 13.6296 15.6919 14.6718 15.6992C15.2557 15.7066 15.5735 15.9506 15.6326 16.4162C15.6992 17.0001 15.3592 17.3919 14.7235 17.3992C13.5261 17.414 12.3361 17.4066 11.1387 17.4066C10.7913 17.4066 10.4513 17.4214 10.1039 17.3992C9.67525 17.3771 9.25394 17.2884 9.04699 16.8449C8.84003 16.4014 8.98785 16.0023 9.26872 15.6401C10.407 14.1914 11.5526 12.7353 12.6983 11.2866C12.7648 11.1979 12.8313 11.1092 12.8979 11.0279C12.8239 10.9023 12.7205 10.9614 12.6318 10.954C11.8335 10.9466 11.0279 10.954 10.2296 10.9466C10.0448 10.9466 9.86003 10.9245 9.68264 10.8875C9.26133 10.7914 9.00264 10.3701 9.09872 9.9562C9.16525 9.67533 9.38699 9.4462 9.66785 9.37968C9.84525 9.33533 10.03 9.31316 10.2148 9.31316C11.5305 9.30577 12.8535 9.30577 14.1692 9.31316C14.4057 9.30577 14.6348 9.33533 14.8639 9.39447C15.3666 9.56447 15.5809 10.0301 15.3813 10.5179C15.2039 10.9392 14.9231 11.3014 14.6422 11.6636C13.6739 12.8979 12.7057 14.1249 11.7374 15.3445C11.6561 15.4406 11.5822 15.5366 11.4639 15.6992Z" fill="#0180C7"/>
<path fill-rule="evenodd" clip-rule="evenodd" d="M24.5112 14.2284C24.5104 13.8465 24.5096 13.4646 24.5096 13.0827C24.5096 12.6986 24.5104 12.3137 24.5112 11.9286C24.5129 11.1574 24.5145 10.3852 24.5096 9.61618C24.5096 9.02488 24.1326 8.65532 23.5709 8.66271C23.0239 8.66271 22.6618 9.03227 22.6544 9.6014C22.6494 9.83272 22.6511 10.0608 22.6527 10.2899C22.6535 10.4049 22.6544 10.5201 22.6544 10.6362V16.5123C22.6544 16.9779 22.9352 17.3697 23.3048 17.4657C23.3935 17.4879 23.4896 17.4953 23.5783 17.4953C24.1031 17.4805 24.517 17.0444 24.5096 16.5197C24.5145 15.7559 24.5129 14.9921 24.5112 14.2284ZM20.0378 11.8114C20.2152 11.5823 20.4 11.3679 20.7031 11.3088C21.287 11.1905 21.8339 11.5675 21.8413 12.1588C21.8635 13.6371 21.8561 15.1153 21.8413 16.5936C21.8413 16.9779 21.59 17.3179 21.2278 17.4288C20.8583 17.5692 20.437 17.4584 20.1931 17.1405C20.0674 16.9853 20.0157 16.9557 19.8383 17.0962C19.1657 17.6431 18.4044 17.7392 17.5839 17.4731C16.2683 17.0444 15.7287 16.0171 15.5809 14.7679C15.4257 13.4153 15.8765 12.2623 17.0887 11.5527C18.0939 10.954 19.1139 11.0057 20.0378 11.8114ZM17.4213 14.5092C17.4361 14.8344 17.5396 15.1449 17.7318 15.4036C18.1309 15.9358 18.8922 16.0466 19.4318 15.6475C19.5205 15.581 19.6018 15.4997 19.6757 15.4036C20.0896 14.8418 20.0896 13.9179 19.6757 13.3562C19.4687 13.0679 19.1435 12.8979 18.7961 12.8905C17.9831 12.8388 17.4139 13.4671 17.4213 14.5092ZM28.1239 11.1831C26.35 11.2349 25.1009 12.654 25.16 14.5536C25.1305 16.4014 26.6605 17.7984 28.5896 17.6062C30.3561 17.4288 31.5018 16.1058 31.4426 14.2358C31.3835 12.3879 30.0087 11.124 28.1239 11.1831ZM27.0152 14.3762C27.0005 14.7457 27.1113 15.1079 27.3331 15.411C27.7396 15.9431 28.5009 16.0466 29.0331 15.6327C29.1144 15.5736 29.1809 15.4997 29.2474 15.4257C29.6761 14.864 29.6761 13.9179 29.2548 13.3562C29.0478 13.0753 28.7226 12.8979 28.3752 12.8905C27.577 12.8462 27.0152 13.4523 27.0152 14.3762Z" fill="#0180C7"/>
<path fill-rule="evenodd" clip-rule="evenodd" d="M18.7887 12.8831C17.9831 12.8387 17.4139 13.467 17.4213 14.5091C17.4361 14.8344 17.5396 15.1448 17.7244 15.4035C17.7983 15.4996 17.8796 15.5809 17.9683 15.6474C18.5079 16.0465 19.2692 15.9357 19.6683 15.4035C20.0822 14.8418 20.0822 13.9105 19.6683 13.3561C19.4613 13.0678 19.1361 12.8978 18.7887 12.8831ZM28.3752 12.8905C27.577 12.8461 27.0152 13.4596 27.0152 14.3761C27.0079 14.7457 27.1113 15.1078 27.3331 15.4109C27.3922 15.4922 27.4587 15.5661 27.54 15.6252C28.0648 16.0391 28.8335 15.9505 29.2474 15.4257C29.6761 14.8713 29.6761 13.9178 29.2548 13.3561C29.0479 13.0752 28.7226 12.8978 28.3752 12.8905Z" fill="#FDFEFE"/>
</svg>
